<mxfile host="app.diagrams.net" modified="2022-09-30T05:58:09.918Z" agent="5.0 (Windows NT 10.0; Win64; x64) AppleWebKit/537.36 (KHTML, like Gecko) Chrome/105.0.0.0 Safari/537.36" etag="g4qJiL5ZfHySYklU58__" version="20.3.7" type="github">
  <diagram id="Qu6WHnmvzwfrQkN4t7Un" name="Page-1">
    <mxGraphModel dx="2188" dy="1160" grid="1" gridSize="10" guides="1" tooltips="1" connect="1" arrows="1" fold="1" page="1" pageScale="1" pageWidth="1200" pageHeight="1100" math="0" shadow="0">
      <root>
        <mxCell id="0" />
        <mxCell id="1" parent="0" />
        <mxCell id="6KVouXbyhSfiQOAjiajI-1" value="LINDERMAN" style="rounded=0;whiteSpace=wrap;html=1;" parent="1" vertex="1">
          <mxGeometry x="440" y="360" width="80" height="80" as="geometry" />
        </mxCell>
        <mxCell id="6KVouXbyhSfiQOAjiajI-21" value="1" style="rhombus;whiteSpace=wrap;html=1;" parent="1" vertex="1">
          <mxGeometry x="590" y="389.5" width="20" height="20" as="geometry" />
        </mxCell>
        <mxCell id="6KVouXbyhSfiQOAjiajI-27" value="" style="endArrow=none;html=1;rounded=0;exitX=1;exitY=0.5;exitDx=0;exitDy=0;entryX=0;entryY=0.5;entryDx=0;entryDy=0;" parent="1" source="6KVouXbyhSfiQOAjiajI-1" target="6KVouXbyhSfiQOAjiajI-21" edge="1">
          <mxGeometry width="50" height="50" relative="1" as="geometry">
            <mxPoint x="560" y="304" as="sourcePoint" />
            <mxPoint x="610" y="254" as="targetPoint" />
          </mxGeometry>
        </mxCell>
        <mxCell id="6KVouXbyhSfiQOAjiajI-28" value="" style="triangle;whiteSpace=wrap;html=1;rotation=-90;" parent="1" vertex="1">
          <mxGeometry x="592.5" y="420" width="15" height="20" as="geometry" />
        </mxCell>
        <mxCell id="6KVouXbyhSfiQOAjiajI-31" value="" style="endArrow=none;html=1;rounded=0;entryX=0.5;entryY=1;entryDx=0;entryDy=0;exitX=1;exitY=0.5;exitDx=0;exitDy=0;" parent="1" source="6KVouXbyhSfiQOAjiajI-28" target="6KVouXbyhSfiQOAjiajI-21" edge="1">
          <mxGeometry width="50" height="50" relative="1" as="geometry">
            <mxPoint x="600" y="404" as="sourcePoint" />
            <mxPoint x="720" y="504" as="targetPoint" />
          </mxGeometry>
        </mxCell>
        <mxCell id="6KVouXbyhSfiQOAjiajI-36" value="" style="endArrow=none;html=1;rounded=0;exitX=0;exitY=0.5;exitDx=0;exitDy=0;entryX=0.5;entryY=0;entryDx=0;entryDy=0;" parent="1" source="6KVouXbyhSfiQOAjiajI-28" target="6KVouXbyhSfiQOAjiajI-63" edge="1">
          <mxGeometry width="50" height="50" relative="1" as="geometry">
            <mxPoint x="630" y="464" as="sourcePoint" />
            <mxPoint x="600" y="520" as="targetPoint" />
          </mxGeometry>
        </mxCell>
        <mxCell id="6KVouXbyhSfiQOAjiajI-63" value="2" style="rhombus;whiteSpace=wrap;html=1;" parent="1" vertex="1">
          <mxGeometry x="590" y="550" width="20" height="20" as="geometry" />
        </mxCell>
        <mxCell id="6KVouXbyhSfiQOAjiajI-64" value="" style="triangle;whiteSpace=wrap;html=1;rotation=-90;" parent="1" vertex="1">
          <mxGeometry x="592.5" y="580.5" width="15" height="20" as="geometry" />
        </mxCell>
        <mxCell id="6KVouXbyhSfiQOAjiajI-65" value="" style="endArrow=none;html=1;rounded=0;entryX=0.5;entryY=1;entryDx=0;entryDy=0;exitX=1;exitY=0.5;exitDx=0;exitDy=0;" parent="1" source="6KVouXbyhSfiQOAjiajI-64" target="6KVouXbyhSfiQOAjiajI-63" edge="1">
          <mxGeometry width="50" height="50" relative="1" as="geometry">
            <mxPoint x="600" y="564.5" as="sourcePoint" />
            <mxPoint x="720" y="664.5" as="targetPoint" />
          </mxGeometry>
        </mxCell>
        <mxCell id="6KVouXbyhSfiQOAjiajI-66" value="" style="triangle;whiteSpace=wrap;html=1;rotation=0;" parent="1" vertex="1">
          <mxGeometry x="560" y="550" width="15" height="20" as="geometry" />
        </mxCell>
        <mxCell id="6KVouXbyhSfiQOAjiajI-67" value="" style="endArrow=none;html=1;rounded=0;exitX=0;exitY=0.5;exitDx=0;exitDy=0;entryX=1;entryY=0.5;entryDx=0;entryDy=0;" parent="1" source="6KVouXbyhSfiQOAjiajI-63" target="6KVouXbyhSfiQOAjiajI-66" edge="1">
          <mxGeometry width="50" height="50" relative="1" as="geometry">
            <mxPoint x="670" y="550" as="sourcePoint" />
            <mxPoint x="720" y="500" as="targetPoint" />
          </mxGeometry>
        </mxCell>
        <mxCell id="6KVouXbyhSfiQOAjiajI-68" value="" style="triangle;whiteSpace=wrap;html=1;rotation=0;" parent="1" vertex="1">
          <mxGeometry x="440" y="550" width="15" height="20" as="geometry" />
        </mxCell>
        <mxCell id="6KVouXbyhSfiQOAjiajI-69" value="" style="endArrow=none;html=1;rounded=0;exitX=1;exitY=0.5;exitDx=0;exitDy=0;entryX=0;entryY=0.5;entryDx=0;entryDy=0;" parent="1" source="6KVouXbyhSfiQOAjiajI-68" target="6KVouXbyhSfiQOAjiajI-66" edge="1">
          <mxGeometry width="50" height="50" relative="1" as="geometry">
            <mxPoint x="670" y="550" as="sourcePoint" />
            <mxPoint x="720" y="500" as="targetPoint" />
          </mxGeometry>
        </mxCell>
        <mxCell id="6KVouXbyhSfiQOAjiajI-75" value="3" style="rhombus;whiteSpace=wrap;html=1;" parent="1" vertex="1">
          <mxGeometry x="270" y="550" width="20" height="20" as="geometry" />
        </mxCell>
        <mxCell id="6KVouXbyhSfiQOAjiajI-76" value="" style="triangle;whiteSpace=wrap;html=1;rotation=-90;" parent="1" vertex="1">
          <mxGeometry x="272.5" y="630" width="15" height="20" as="geometry" />
        </mxCell>
        <mxCell id="6KVouXbyhSfiQOAjiajI-77" value="" style="endArrow=none;html=1;rounded=0;entryX=0.5;entryY=1;entryDx=0;entryDy=0;exitX=1;exitY=0.5;exitDx=0;exitDy=0;" parent="1" source="6KVouXbyhSfiQOAjiajI-76" target="6KVouXbyhSfiQOAjiajI-75" edge="1">
          <mxGeometry width="50" height="50" relative="1" as="geometry">
            <mxPoint x="280" y="564.5" as="sourcePoint" />
            <mxPoint x="400" y="664.5" as="targetPoint" />
          </mxGeometry>
        </mxCell>
        <mxCell id="6KVouXbyhSfiQOAjiajI-78" value="" style="triangle;whiteSpace=wrap;html=1;rotation=0;" parent="1" vertex="1">
          <mxGeometry x="240" y="670.5" width="15" height="20" as="geometry" />
        </mxCell>
        <mxCell id="6KVouXbyhSfiQOAjiajI-81" value="" style="endArrow=none;html=1;rounded=0;entryX=0;entryY=0.5;entryDx=0;entryDy=0;exitX=1;exitY=0.5;exitDx=0;exitDy=0;" parent="1" source="6KVouXbyhSfiQOAjiajI-78" target="6KVouXbyhSfiQOAjiajI-76" edge="1">
          <mxGeometry width="50" height="50" relative="1" as="geometry">
            <mxPoint x="320" y="710" as="sourcePoint" />
            <mxPoint x="370" y="660" as="targetPoint" />
            <Array as="points">
              <mxPoint x="280" y="681" />
              <mxPoint x="280" y="660" />
            </Array>
          </mxGeometry>
        </mxCell>
        <mxCell id="6KVouXbyhSfiQOAjiajI-82" value="" style="endArrow=none;html=1;rounded=0;entryX=0;entryY=0.5;entryDx=0;entryDy=0;exitX=1;exitY=0.5;exitDx=0;exitDy=0;" parent="1" source="6KVouXbyhSfiQOAjiajI-75" target="6KVouXbyhSfiQOAjiajI-68" edge="1">
          <mxGeometry width="50" height="50" relative="1" as="geometry">
            <mxPoint x="330" y="560.0000000000002" as="sourcePoint" />
            <mxPoint x="570" y="460" as="targetPoint" />
          </mxGeometry>
        </mxCell>
        <mxCell id="6KVouXbyhSfiQOAjiajI-87" value="" style="shape=or;whiteSpace=wrap;html=1;rotation=0;flipV=0;flipH=1;" parent="1" vertex="1">
          <mxGeometry x="220" y="540" width="20" height="40" as="geometry" />
        </mxCell>
        <mxCell id="6KVouXbyhSfiQOAjiajI-88" value="" style="endArrow=none;html=1;rounded=0;exitX=0;exitY=0.5;exitDx=0;exitDy=0;entryX=0;entryY=0.5;entryDx=0;entryDy=0;entryPerimeter=0;" parent="1" source="6KVouXbyhSfiQOAjiajI-75" target="6KVouXbyhSfiQOAjiajI-87" edge="1">
          <mxGeometry width="50" height="50" relative="1" as="geometry">
            <mxPoint x="210" y="570" as="sourcePoint" />
            <mxPoint x="570" y="460" as="targetPoint" />
          </mxGeometry>
        </mxCell>
        <mxCell id="6KVouXbyhSfiQOAjiajI-90" value="" style="endArrow=none;html=1;rounded=0;exitX=0;exitY=0.5;exitDx=0;exitDy=0;exitPerimeter=0;entryX=0;entryY=0.5;entryDx=0;entryDy=0;" parent="1" source="6KVouXbyhSfiQOAjiajI-93" target="6KVouXbyhSfiQOAjiajI-78" edge="1">
          <mxGeometry width="50" height="50" relative="1" as="geometry">
            <mxPoint x="160" y="660" as="sourcePoint" />
            <mxPoint x="570" y="500" as="targetPoint" />
          </mxGeometry>
        </mxCell>
        <mxCell id="6KVouXbyhSfiQOAjiajI-93" value="" style="shape=or;whiteSpace=wrap;html=1;rotation=0;flipV=0;flipH=1;" parent="1" vertex="1">
          <mxGeometry x="140" y="660.5" width="20" height="40" as="geometry" />
        </mxCell>
        <mxCell id="6KVouXbyhSfiQOAjiajI-100" value="LEGEND" style="shape=table;startSize=30;container=1;collapsible=0;childLayout=tableLayout;fontStyle=1;align=center;fontSize=23;" parent="1" vertex="1">
          <mxGeometry x="100" y="110" width="280" height="240" as="geometry" />
        </mxCell>
        <mxCell id="6KVouXbyhSfiQOAjiajI-101" value="" style="shape=tableRow;horizontal=0;startSize=0;swimlaneHead=0;swimlaneBody=0;top=0;left=0;bottom=0;right=0;collapsible=0;dropTarget=0;fillColor=none;points=[[0,0.5],[1,0.5]];portConstraint=eastwest;" parent="6KVouXbyhSfiQOAjiajI-100" vertex="1">
          <mxGeometry y="30" width="280" height="42" as="geometry" />
        </mxCell>
        <mxCell id="6KVouXbyhSfiQOAjiajI-102" value="Square" style="shape=partialRectangle;html=1;whiteSpace=wrap;connectable=0;fillColor=none;top=0;left=0;bottom=0;right=0;overflow=hidden;fontStyle=1" parent="6KVouXbyhSfiQOAjiajI-101" vertex="1">
          <mxGeometry width="105" height="42" as="geometry">
            <mxRectangle width="105" height="42" as="alternateBounds" />
          </mxGeometry>
        </mxCell>
        <mxCell id="6KVouXbyhSfiQOAjiajI-103" value="Building" style="shape=partialRectangle;html=1;whiteSpace=wrap;connectable=0;fillColor=none;top=0;left=0;bottom=0;right=0;overflow=hidden;" parent="6KVouXbyhSfiQOAjiajI-101" vertex="1">
          <mxGeometry x="105" width="175" height="42" as="geometry">
            <mxRectangle width="175" height="42" as="alternateBounds" />
          </mxGeometry>
        </mxCell>
        <mxCell id="6KVouXbyhSfiQOAjiajI-125" style="shape=tableRow;horizontal=0;startSize=0;swimlaneHead=0;swimlaneBody=0;top=0;left=0;bottom=0;right=0;collapsible=0;dropTarget=0;fillColor=none;points=[[0,0.5],[1,0.5]];portConstraint=eastwest;" parent="6KVouXbyhSfiQOAjiajI-100" vertex="1">
          <mxGeometry y="72" width="280" height="42" as="geometry" />
        </mxCell>
        <mxCell id="6KVouXbyhSfiQOAjiajI-126" value="Diamond" style="shape=partialRectangle;html=1;whiteSpace=wrap;connectable=0;fillColor=none;top=0;left=0;bottom=0;right=0;overflow=hidden;fontStyle=1" parent="6KVouXbyhSfiQOAjiajI-125" vertex="1">
          <mxGeometry width="105" height="42" as="geometry">
            <mxRectangle width="105" height="42" as="alternateBounds" />
          </mxGeometry>
        </mxCell>
        <mxCell id="6KVouXbyhSfiQOAjiajI-127" value="Intersection" style="shape=partialRectangle;html=1;whiteSpace=wrap;connectable=0;fillColor=none;top=0;left=0;bottom=0;right=0;overflow=hidden;" parent="6KVouXbyhSfiQOAjiajI-125" vertex="1">
          <mxGeometry x="105" width="175" height="42" as="geometry">
            <mxRectangle width="175" height="42" as="alternateBounds" />
          </mxGeometry>
        </mxCell>
        <mxCell id="6KVouXbyhSfiQOAjiajI-105" value="" style="shape=tableRow;horizontal=0;startSize=0;swimlaneHead=0;swimlaneBody=0;top=0;left=0;bottom=0;right=0;collapsible=0;dropTarget=0;fillColor=none;points=[[0,0.5],[1,0.5]];portConstraint=eastwest;" parent="6KVouXbyhSfiQOAjiajI-100" vertex="1">
          <mxGeometry y="114" width="280" height="42" as="geometry" />
        </mxCell>
        <mxCell id="6KVouXbyhSfiQOAjiajI-106" value="Triangle" style="shape=partialRectangle;html=1;whiteSpace=wrap;connectable=0;fillColor=none;top=0;left=0;bottom=0;right=0;overflow=hidden;fontStyle=1" parent="6KVouXbyhSfiQOAjiajI-105" vertex="1">
          <mxGeometry width="105" height="42" as="geometry">
            <mxRectangle width="105" height="42" as="alternateBounds" />
          </mxGeometry>
        </mxCell>
        <mxCell id="6KVouXbyhSfiQOAjiajI-107" value="Elevation" style="shape=partialRectangle;html=1;whiteSpace=wrap;connectable=0;fillColor=none;top=0;left=0;bottom=0;right=0;overflow=hidden;" parent="6KVouXbyhSfiQOAjiajI-105" vertex="1">
          <mxGeometry x="105" width="175" height="42" as="geometry">
            <mxRectangle width="175" height="42" as="alternateBounds" />
          </mxGeometry>
        </mxCell>
        <mxCell id="6KVouXbyhSfiQOAjiajI-130" style="shape=tableRow;horizontal=0;startSize=0;swimlaneHead=0;swimlaneBody=0;top=0;left=0;bottom=0;right=0;collapsible=0;dropTarget=0;fillColor=none;points=[[0,0.5],[1,0.5]];portConstraint=eastwest;" parent="6KVouXbyhSfiQOAjiajI-100" vertex="1">
          <mxGeometry y="156" width="280" height="43" as="geometry" />
        </mxCell>
        <mxCell id="6KVouXbyhSfiQOAjiajI-131" value="Circle" style="shape=partialRectangle;html=1;whiteSpace=wrap;connectable=0;fillColor=none;top=0;left=0;bottom=0;right=0;overflow=hidden;fontStyle=1" parent="6KVouXbyhSfiQOAjiajI-130" vertex="1">
          <mxGeometry width="105" height="43" as="geometry">
            <mxRectangle width="105" height="43" as="alternateBounds" />
          </mxGeometry>
        </mxCell>
        <mxCell id="6KVouXbyhSfiQOAjiajI-132" value="Manhole" style="shape=partialRectangle;html=1;whiteSpace=wrap;connectable=0;fillColor=none;top=0;left=0;bottom=0;right=0;overflow=hidden;" parent="6KVouXbyhSfiQOAjiajI-130" vertex="1">
          <mxGeometry x="105" width="175" height="43" as="geometry">
            <mxRectangle width="175" height="43" as="alternateBounds" />
          </mxGeometry>
        </mxCell>
        <mxCell id="6KVouXbyhSfiQOAjiajI-109" value="" style="shape=tableRow;horizontal=0;startSize=0;swimlaneHead=0;swimlaneBody=0;top=0;left=0;bottom=0;right=0;collapsible=0;dropTarget=0;fillColor=none;points=[[0,0.5],[1,0.5]];portConstraint=eastwest;" parent="6KVouXbyhSfiQOAjiajI-100" vertex="1">
          <mxGeometry y="199" width="280" height="41" as="geometry" />
        </mxCell>
        <mxCell id="6KVouXbyhSfiQOAjiajI-110" value="&#xa;&lt;span style=&quot;color: rgb(0, 0, 0); font-family: Helvetica; font-size: 12px; font-style: normal; font-variant-ligatures: normal; font-variant-caps: normal; letter-spacing: normal; orphans: 2; text-align: center; text-indent: 0px; text-transform: none; widows: 2; word-spacing: 0px; -webkit-text-stroke-width: 0px; background-color: rgb(248, 249, 250); text-decoration-thickness: initial; text-decoration-style: initial; text-decoration-color: initial; float: none; display: inline !important;&quot;&gt;Semi Circle&lt;/span&gt;&#xa;&#xa;" style="shape=partialRectangle;html=1;whiteSpace=wrap;connectable=0;fillColor=none;top=0;left=0;bottom=0;right=0;overflow=hidden;fontStyle=1" parent="6KVouXbyhSfiQOAjiajI-109" vertex="1">
          <mxGeometry width="105" height="41" as="geometry">
            <mxRectangle width="105" height="41" as="alternateBounds" />
          </mxGeometry>
        </mxCell>
        <mxCell id="6KVouXbyhSfiQOAjiajI-111" value="Dead end" style="shape=partialRectangle;html=1;whiteSpace=wrap;connectable=0;fillColor=none;top=0;left=0;bottom=0;right=0;overflow=hidden;" parent="6KVouXbyhSfiQOAjiajI-109" vertex="1">
          <mxGeometry x="105" width="175" height="41" as="geometry">
            <mxRectangle width="175" height="41" as="alternateBounds" />
          </mxGeometry>
        </mxCell>
        <mxCell id="6KVouXbyhSfiQOAjiajI-128" value="" style="shape=mxgraph.arrows2.wedgeArrow;html=1;bendable=0;startWidth=50;fillColor=strokeColor;defaultFillColor=invert;defaultGradientColor=invert;rounded=0;" parent="1" edge="1">
          <mxGeometry width="100" height="100" relative="1" as="geometry">
            <mxPoint x="970" y="760" as="sourcePoint" />
            <mxPoint x="1005" y="600" as="targetPoint" />
          </mxGeometry>
        </mxCell>
        <mxCell id="6KVouXbyhSfiQOAjiajI-129" value="N" style="edgeLabel;html=1;align=center;verticalAlign=middle;resizable=0;points=[];fontColor=#FFFCFE;labelBackgroundColor=#000000;fontStyle=1;fontSize=44;rotation=15;" parent="6KVouXbyhSfiQOAjiajI-128" vertex="1" connectable="0">
          <mxGeometry x="-0.3807" y="1" relative="1" as="geometry">
            <mxPoint y="10" as="offset" />
          </mxGeometry>
        </mxCell>
        <mxCell id="6gVBBG0WPgmcQdnNXwfl-1" value="COPPEE" style="rounded=0;whiteSpace=wrap;html=1;" parent="1" vertex="1">
          <mxGeometry x="560" y="740" width="80" height="80" as="geometry" />
        </mxCell>
        <mxCell id="6gVBBG0WPgmcQdnNXwfl-2" value="" style="endArrow=none;html=1;rounded=0;entryX=0;entryY=0.5;entryDx=0;entryDy=0;exitX=1;exitY=0.5;exitDx=0;exitDy=0;" parent="1" source="6gVBBG0WPgmcQdnNXwfl-3" target="6KVouXbyhSfiQOAjiajI-64" edge="1">
          <mxGeometry width="50" height="50" relative="1" as="geometry">
            <mxPoint x="520" y="570" as="sourcePoint" />
            <mxPoint x="570" y="520" as="targetPoint" />
          </mxGeometry>
        </mxCell>
        <mxCell id="6gVBBG0WPgmcQdnNXwfl-3" value="" style="triangle;whiteSpace=wrap;html=1;rotation=-90;" parent="1" vertex="1">
          <mxGeometry x="592.5" y="660" width="15" height="20" as="geometry" />
        </mxCell>
        <mxCell id="6gVBBG0WPgmcQdnNXwfl-4" value="" style="endArrow=none;html=1;rounded=0;exitX=0;exitY=0.5;exitDx=0;exitDy=0;entryX=0.5;entryY=0;entryDx=0;entryDy=0;strokeWidth=3;" parent="1" source="6gVBBG0WPgmcQdnNXwfl-3" target="6gVBBG0WPgmcQdnNXwfl-1" edge="1">
          <mxGeometry width="50" height="50" relative="1" as="geometry">
            <mxPoint x="750" y="560" as="sourcePoint" />
            <mxPoint x="800" y="510" as="targetPoint" />
          </mxGeometry>
        </mxCell>
        <mxCell id="6gVBBG0WPgmcQdnNXwfl-7" value="DROWN" style="rounded=0;whiteSpace=wrap;html=1;" parent="1" vertex="1">
          <mxGeometry x="360" y="860" width="80" height="80" as="geometry" />
        </mxCell>
        <mxCell id="6gVBBG0WPgmcQdnNXwfl-8" value="LAMBERTON" style="rounded=0;whiteSpace=wrap;html=1;" parent="1" vertex="1">
          <mxGeometry x="800" y="960" width="80" height="80" as="geometry" />
        </mxCell>
        <mxCell id="6gVBBG0WPgmcQdnNXwfl-10" value="4" style="rhombus;whiteSpace=wrap;html=1;" parent="1" vertex="1">
          <mxGeometry x="590" y="890" width="20" height="20" as="geometry" />
        </mxCell>
        <mxCell id="6gVBBG0WPgmcQdnNXwfl-12" value="" style="endArrow=none;html=1;rounded=0;exitX=0.5;exitY=1;exitDx=0;exitDy=0;entryX=0.5;entryY=0;entryDx=0;entryDy=0;" parent="1" source="6gVBBG0WPgmcQdnNXwfl-1" target="6gVBBG0WPgmcQdnNXwfl-10" edge="1">
          <mxGeometry width="50" height="50" relative="1" as="geometry">
            <mxPoint x="520" y="670" as="sourcePoint" />
            <mxPoint x="570" y="620" as="targetPoint" />
          </mxGeometry>
        </mxCell>
        <mxCell id="6gVBBG0WPgmcQdnNXwfl-13" value="" style="endArrow=none;html=1;rounded=0;entryX=0;entryY=0.5;entryDx=0;entryDy=0;exitX=0;exitY=0.5;exitDx=0;exitDy=0;exitPerimeter=0;" parent="1" source="6gVBBG0WPgmcQdnNXwfl-18" target="6gVBBG0WPgmcQdnNXwfl-10" edge="1">
          <mxGeometry width="50" height="50" relative="1" as="geometry">
            <mxPoint x="510" y="890" as="sourcePoint" />
            <mxPoint x="570" y="620" as="targetPoint" />
          </mxGeometry>
        </mxCell>
        <mxCell id="6gVBBG0WPgmcQdnNXwfl-15" value="UNIVERSITY CENTER" style="rounded=0;whiteSpace=wrap;html=1;" parent="1" vertex="1">
          <mxGeometry x="40" y="640.5" width="80" height="80" as="geometry" />
        </mxCell>
        <mxCell id="6gVBBG0WPgmcQdnNXwfl-17" value="" style="endArrow=none;html=1;rounded=0;exitX=1;exitY=0.5;exitDx=0;exitDy=0;entryX=1;entryY=0.5;entryDx=0;entryDy=0;entryPerimeter=0;" parent="1" source="6gVBBG0WPgmcQdnNXwfl-15" target="6KVouXbyhSfiQOAjiajI-93" edge="1">
          <mxGeometry width="50" height="50" relative="1" as="geometry">
            <mxPoint x="120" y="660" as="sourcePoint" />
            <mxPoint x="570" y="660" as="targetPoint" />
          </mxGeometry>
        </mxCell>
        <mxCell id="6gVBBG0WPgmcQdnNXwfl-18" value="" style="shape=or;whiteSpace=wrap;html=1;rotation=0;flipV=0;flipH=1;" parent="1" vertex="1">
          <mxGeometry x="460" y="880" width="20" height="40" as="geometry" />
        </mxCell>
        <mxCell id="6gVBBG0WPgmcQdnNXwfl-20" value="" style="endArrow=none;html=1;rounded=0;exitX=1;exitY=0.5;exitDx=0;exitDy=0;exitPerimeter=0;entryX=1;entryY=0.5;entryDx=0;entryDy=0;" parent="1" source="6gVBBG0WPgmcQdnNXwfl-18" target="6gVBBG0WPgmcQdnNXwfl-7" edge="1">
          <mxGeometry width="50" height="50" relative="1" as="geometry">
            <mxPoint x="520" y="670" as="sourcePoint" />
            <mxPoint x="570" y="620" as="targetPoint" />
          </mxGeometry>
        </mxCell>
        <mxCell id="6gVBBG0WPgmcQdnNXwfl-21" value="" style="endArrow=none;html=1;rounded=0;exitX=1;exitY=1;exitDx=0;exitDy=0;fontStyle=1;strokeWidth=3;entryX=0;entryY=0.5;entryDx=0;entryDy=0;" parent="1" source="6gVBBG0WPgmcQdnNXwfl-10" target="8kce820EnkoUsimwfO_c-1" edge="1">
          <mxGeometry width="50" height="50" relative="1" as="geometry">
            <mxPoint x="510" y="790" as="sourcePoint" />
            <mxPoint x="750" y="1000" as="targetPoint" />
            <Array as="points">
              <mxPoint x="700" y="1000" />
            </Array>
          </mxGeometry>
        </mxCell>
        <mxCell id="8kce820EnkoUsimwfO_c-1" value="" style="triangle;whiteSpace=wrap;html=1;rotation=0;" parent="1" vertex="1">
          <mxGeometry x="760" y="990" width="15" height="20" as="geometry" />
        </mxCell>
        <mxCell id="8kce820EnkoUsimwfO_c-4" value="" style="endArrow=none;html=1;rounded=0;entryX=1;entryY=0.5;entryDx=0;entryDy=0;strokeWidth=3;exitX=0;exitY=0.5;exitDx=0;exitDy=0;" parent="1" source="6gVBBG0WPgmcQdnNXwfl-8" target="8kce820EnkoUsimwfO_c-1" edge="1">
          <mxGeometry width="50" height="50" relative="1" as="geometry">
            <mxPoint x="820" y="810" as="sourcePoint" />
            <mxPoint x="610" y="750" as="targetPoint" />
          </mxGeometry>
        </mxCell>
        <mxCell id="8kce820EnkoUsimwfO_c-15" value="" style="endArrow=none;html=1;rounded=0;entryX=1;entryY=0.5;entryDx=0;entryDy=0;exitX=1;exitY=0.5;exitDx=0;exitDy=0;exitPerimeter=0;" parent="1" source="6KVouXbyhSfiQOAjiajI-87" target="SB41HS4RqWZkBEV9Hs1W-19" edge="1">
          <mxGeometry width="50" height="50" relative="1" as="geometry">
            <mxPoint x="200" y="670" as="sourcePoint" />
            <mxPoint x="210" y="560" as="targetPoint" />
          </mxGeometry>
        </mxCell>
        <mxCell id="SB41HS4RqWZkBEV9Hs1W-2" value="5" style="rhombus;whiteSpace=wrap;html=1;" vertex="1" parent="1">
          <mxGeometry x="830" y="310" width="20" height="20" as="geometry" />
        </mxCell>
        <mxCell id="SB41HS4RqWZkBEV9Hs1W-4" value="" style="endArrow=none;html=1;rounded=0;exitX=1;exitY=0.5;exitDx=0;exitDy=0;entryX=0;entryY=0.5;entryDx=0;entryDy=0;" edge="1" parent="1" source="6KVouXbyhSfiQOAjiajI-21" target="SB41HS4RqWZkBEV9Hs1W-15">
          <mxGeometry width="50" height="50" relative="1" as="geometry">
            <mxPoint x="700" y="530" as="sourcePoint" />
            <mxPoint x="840" y="370" as="targetPoint" />
            <Array as="points">
              <mxPoint x="840" y="400" />
            </Array>
          </mxGeometry>
        </mxCell>
        <mxCell id="SB41HS4RqWZkBEV9Hs1W-5" value="CHANDLER-ULLMANN" style="rounded=0;whiteSpace=wrap;html=1;" vertex="1" parent="1">
          <mxGeometry x="800" y="120" width="80" height="80" as="geometry" />
        </mxCell>
        <mxCell id="SB41HS4RqWZkBEV9Hs1W-6" value="" style="endArrow=none;html=1;rounded=0;entryX=0.5;entryY=1;entryDx=0;entryDy=0;exitX=0.5;exitY=0;exitDx=0;exitDy=0;" edge="1" parent="1" source="SB41HS4RqWZkBEV9Hs1W-2" target="SB41HS4RqWZkBEV9Hs1W-5">
          <mxGeometry width="50" height="50" relative="1" as="geometry">
            <mxPoint x="600" y="200" as="sourcePoint" />
            <mxPoint x="650" y="150" as="targetPoint" />
          </mxGeometry>
        </mxCell>
        <mxCell id="SB41HS4RqWZkBEV9Hs1W-8" value="" style="endArrow=none;html=1;rounded=0;exitX=1;exitY=0;exitDx=0;exitDy=0;entryX=0;entryY=0.5;entryDx=0;entryDy=0;" edge="1" parent="1" source="SB41HS4RqWZkBEV9Hs1W-2" target="SB41HS4RqWZkBEV9Hs1W-18">
          <mxGeometry width="50" height="50" relative="1" as="geometry">
            <mxPoint x="600" y="320" as="sourcePoint" />
            <mxPoint x="1100" y="150" as="targetPoint" />
            <Array as="points">
              <mxPoint x="1060" y="160" />
            </Array>
          </mxGeometry>
        </mxCell>
        <mxCell id="SB41HS4RqWZkBEV9Hs1W-15" value="" style="triangle;whiteSpace=wrap;html=1;rotation=-90;" vertex="1" parent="1">
          <mxGeometry x="832.5" y="350" width="15" height="20" as="geometry" />
        </mxCell>
        <mxCell id="SB41HS4RqWZkBEV9Hs1W-17" value="" style="endArrow=none;html=1;rounded=0;entryX=1;entryY=0.5;entryDx=0;entryDy=0;exitX=0.5;exitY=1;exitDx=0;exitDy=0;" edge="1" parent="1" source="SB41HS4RqWZkBEV9Hs1W-2" target="SB41HS4RqWZkBEV9Hs1W-15">
          <mxGeometry width="50" height="50" relative="1" as="geometry">
            <mxPoint x="480" y="590" as="sourcePoint" />
            <mxPoint x="530" y="540" as="targetPoint" />
          </mxGeometry>
        </mxCell>
        <mxCell id="SB41HS4RqWZkBEV9Hs1W-18" value="WILLIAMS&lt;br&gt;(Outside)" style="ellipse;whiteSpace=wrap;html=1;aspect=fixed;" vertex="1" parent="1">
          <mxGeometry x="1080" y="120" width="80" height="80" as="geometry" />
        </mxCell>
        <mxCell id="SB41HS4RqWZkBEV9Hs1W-19" value="UC (Outside)" style="ellipse;whiteSpace=wrap;html=1;aspect=fixed;" vertex="1" parent="1">
          <mxGeometry x="130" y="520" width="80" height="80" as="geometry" />
        </mxCell>
      </root>
    </mxGraphModel>
  </diagram>
</mxfile>
